<?xml version="1.0" encoding="iso-8859-1"?>
<!-- Generator: Adobe Illustrator 19.0.0, SVG Export Plug-In . SVG Version: 6.00 Build 0)  -->
<svg xmlns="http://www.w3.org/2000/svg" xmlns:xlink="http://www.w3.org/1999/xlink" version="1.1" id="Capa_1" x="0px" y="0px" viewBox="0 0 511.999 511.999" style="enable-background:new 0 0 511.999 511.999;" xml:space="preserve" width="512px" height="512px">
<g>
	<g>
		<path d="M124.695,272.566l22.638-8.991c10.558-4.21,12.784-18.219,4.042-25.483l-28.28-23.447l-2.358-36.673    c-0.722-11.301-13.414-17.826-22.993-11.702l-31.034,19.654l-35.589-9.095c-10.999-2.821-21.062,7.237-18.233,18.233l9.095,35.603    l-19.64,31.02c-6.118,9.65,0.438,22.274,11.702,22.993l36.658,2.358l23.447,28.265c7.277,8.762,21.264,6.537,25.483-4.042    l6.02-15.145c48.417,53.346,74.414,119.433,74.414,200.836c0,8.289,6.708,14.997,14.997,14.997s14.997-6.708,14.997-14.997    C210.06,405.015,178.982,330.624,124.695,272.566z" fill="#D80027"/>
	</g>
</g>
<g>
	<g>
		<path d="M508.836,261.686l-19.64-31.034l9.08-35.589c2.833-11.02-7.255-21.042-18.233-18.233l-35.589,9.095l-31.034-19.654    c-9.544-6.071-22.267,0.321-22.993,11.702l-2.358,36.673l-28.265,23.447c-8.742,7.265-6.516,21.273,4.042,25.483l23.372,9.289    c-53.725,57.578-85.176,131.755-85.176,224.088c0,8.289,6.708,14.997,14.997,14.997s14.997-6.708,14.997-14.997    c0-80.7,25.586-146.577,73.784-200.06l5.711,14.367c4.228,10.601,18.221,12.786,25.483,4.042l23.447-28.265l36.673-2.358    C508.398,283.96,514.954,271.336,508.836,261.686z" fill="#D80027"/>
	</g>
</g>
<g>
	<g>
		<circle cx="196.061" cy="286.992" r="14.997" fill="#D80027"/>
	</g>
</g>
<g>
	<g>
		<circle cx="316.037" cy="286.992" r="14.997" fill="#D80027"/>
	</g>
</g>
<g>
	<g>
		<circle cx="346.031" cy="167.016" r="14.997" fill="#D80027"/>
	</g>
</g>
<g>
	<g>
		<circle cx="166.067" cy="167.016" r="14.997" fill="#D80027"/>
	</g>
</g>
<g>
	<g>
		<circle cx="75.085" cy="496.951" r="14.997" fill="#D80027"/>
	</g>
</g>
<g>
	<g>
		<circle cx="437.013" cy="496.951" r="14.997" fill="#D80027"/>
	</g>
</g>
<g>
	<g>
		<path d="M467.008,361.978c-24.751,0-44.877,20.088-44.973,44.817c-36.096,15.288-60.006,50.43-60.006,90.156    c0,8.289,6.708,14.997,14.997,14.997c8.289,0,14.997-6.708,14.997-14.997c0-27.009,15.898-50.972,40.081-61.945    c8.252,10.252,20.747,16.954,34.904,16.954c24.809,0,44.991-20.182,44.991-44.991C511.999,382.16,491.818,361.978,467.008,361.978    z" fill="#D80027"/>
	</g>
</g>
<g>
	<g>
		<path d="M90.067,406.809c-0.092-24.734-20.22-44.83-44.975-44.83C20.282,361.978,0.1,382.16,0.1,406.97    c0,24.809,20.182,44.991,44.991,44.991c14.153,0,26.644-6.701,34.897-16.947c24.187,10.961,40.088,34.928,40.088,61.938    c0,8.289,6.708,14.997,14.997,14.997s14.997-6.708,14.997-14.997C150.071,457.226,126.161,422.085,90.067,406.809z" fill="#D80027"/>
	</g>
</g>
<g>
	<g>
		<path d="M256.05,0.05c-41.345,0-74.985,33.64-74.985,74.985c0,36.209,25.804,66.5,59.988,73.468v348.449    c0,8.289,6.708,14.997,14.997,14.997c8.289,0,14.997-6.708,14.997-14.997V148.502c34.185-6.968,59.988-37.259,59.988-73.468    C331.035,33.69,297.395,0.05,256.05,0.05z" fill="#D80027"/>
	</g>
</g>
<g>
	<g>
		<path d="M466.009,30.044h-14.997V15.047c0-8.289-6.708-14.997-14.997-14.997c-8.289,0-14.997,6.708-14.997,14.997v14.997H406.02    c-8.289,0-14.997,6.708-14.997,14.997s6.708,14.997,14.997,14.997h14.997v14.997c0,8.289,6.708,14.997,14.997,14.997    c8.289,0,14.997-6.708,14.997-14.997V60.038h14.997c8.289,0,14.997-6.708,14.997-14.997S474.298,30.044,466.009,30.044z" fill="#D80027"/>
	</g>
</g>
<g>
	<g>
		<path d="M106.08,62.038H91.082V47.041c0-8.289-6.708-14.997-14.997-14.997s-14.997,6.708-14.997,14.997v14.997H46.091    c-8.289,0-14.997,6.708-14.997,14.997s6.708,14.997,14.997,14.997h14.997v14.997c0,8.289,6.708,14.997,14.997,14.997    s14.997-6.708,14.997-14.997V92.032h14.997c8.289,0,14.997-6.708,14.997-14.997S114.369,62.038,106.08,62.038z" fill="#D80027"/>
	</g>
</g>
<g>
</g>
<g>
</g>
<g>
</g>
<g>
</g>
<g>
</g>
<g>
</g>
<g>
</g>
<g>
</g>
<g>
</g>
<g>
</g>
<g>
</g>
<g>
</g>
<g>
</g>
<g>
</g>
<g>
</g>
</svg>
