<?xml version="1.0" encoding="iso-8859-1"?>
<!-- Generator: Adobe Illustrator 19.0.0, SVG Export Plug-In . SVG Version: 6.00 Build 0)  -->
<svg xmlns="http://www.w3.org/2000/svg" xmlns:xlink="http://www.w3.org/1999/xlink" version="1.1" id="Layer_1" x="0px" y="0px" viewBox="0 0 512 512" style="enable-background:new 0 0 512 512;" xml:space="preserve" width="512px" height="512px">
<g>
	<g>
		<path d="M201.067,348.16c13.653-42.667,16.213-55.467,6.827-99.84v-0.853l-3.413-11.093c-1.707-3.413-5.12-5.973-8.533-5.973    H127.68c-2.56,0-5.12,1.707-6.827,3.413c-1.707,2.56-1.707,5.12-0.853,7.68l3.413,10.24c8.533,42.667,5.973,51.2-6.827,91.307    v0.853c-5.12,27.307-6.827,54.613-5.12,81.92h33.28c5.12,0,8.533,3.413,8.533,8.533c0,5.12-3.413,8.533-8.533,8.533h-30.72    c0.853,5.973,1.707,11.093,2.56,17.067h36.693c5.12,0,8.533,3.413,8.533,8.533s-3.413,8.533-8.533,8.533H120    c0.853,4.267,2.56,8.533,3.413,12.8l4.267,15.36c1.707,4.267,5.12,6.827,8.533,6.827h68.267c2.56,0,5.12-0.853,6.827-3.413    c1.707-2.56,1.707-5.12,1.707-7.68l-5.12-14.507C194.24,442.027,192.533,394.24,201.067,348.16z" fill="#D80027"/>
	</g>
</g>
<g>
	<g>
		<path d="M325.653,44.373l-7.68-17.067l-4.267-8.533c-33.28,10.24-66.56,15.36-100.693,15.36h-8.533v-25.6    c0-5.12-3.413-8.533-8.533-8.533H127.68c-4.267,0-8.533,4.267-8.533,8.533v25.6h-8.533c-4.267,0-8.533,4.267-8.533,8.533v153.6    c0,5.12,3.413,8.533,8.533,8.533h102.4c33.28,0,67.413,5.12,98.987,14.507l5.12-8.533l7.68-16.213    C346.987,146.773,346.987,92.16,325.653,44.373z M187.413,34.133h-51.2V17.067h51.2V34.133z" fill="#D80027"/>
	</g>
</g>
<g>
	<g>
		<path d="M388.8,24.747L379.413,5.12c-1.707-4.267-5.973-5.973-10.24-4.267l-40.107,13.653l11.947,23.04    c23.893,52.053,23.893,111.787,0,163.84l-7.68,17.067c0,0,0,0.853-0.853,0.853l-3.413,5.973l40.107,13.653    c0.853,0,1.707,0.853,2.56,0.853c3.413,0,5.973-1.707,7.68-5.12l9.387-19.627C416.96,153.6,416.96,85.333,388.8,24.747z" fill="#D80027"/>
	</g>
</g>
<g>
</g>
<g>
</g>
<g>
</g>
<g>
</g>
<g>
</g>
<g>
</g>
<g>
</g>
<g>
</g>
<g>
</g>
<g>
</g>
<g>
</g>
<g>
</g>
<g>
</g>
<g>
</g>
<g>
</g>
</svg>
