<?xml version="1.0" encoding="iso-8859-1"?>
<!-- Generator: Adobe Illustrator 19.0.0, SVG Export Plug-In . SVG Version: 6.00 Build 0)  -->
<svg xmlns="http://www.w3.org/2000/svg" xmlns:xlink="http://www.w3.org/1999/xlink" version="1.1" id="Capa_1" x="0px" y="0px" viewBox="0 0 511.999 511.999" style="enable-background:new 0 0 511.999 511.999;" xml:space="preserve" width="512px" height="512px">
<g>
	<g>
		<path d="M507.289,248.368l-51.2-25.6c-2.654-1.306-5.794-1.169-8.303,0.375c-2.517,1.562-4.053,4.301-4.053,7.262v17.067h-62.566    c16.35-57.805-39.142-106.479-92.962-153.643c-14.473-12.672-43.699-39.595-47.59-43.213c-0.051-0.077-0.094-0.128-0.102-0.128    c-0.333-0.427-0.794-1.015-0.87-1.169c-0.009-0.026-0.444-2.586,4.454-11.247c6.17-10.923,3.294-24.977-6.707-32.691    c-5.931-4.574-13.534-6.349-20.89-4.83c-7.151,1.459-13.286,5.914-16.819,12.211c-19.857,35.345-10.59,54.895-2.475,65.562    l-66.483,169.148H80.332l-23.1-23.1c-1.596-1.604-3.763-2.5-6.033-2.5H8.532c-3.447,0-6.562,2.082-7.876,5.265    c-1.331,3.191-0.597,6.861,1.843,9.301l19.567,19.567L2.499,275.572c-2.44,2.441-3.174,6.11-1.843,9.301    c1.314,3.183,4.429,5.265,7.876,5.265h42.667c2.27,0,4.437-0.896,6.033-2.5l23.1-23.1h50.389l66.458,169.079    c-7.825,10.172-17.638,29.79,2.5,65.63c3.533,6.298,9.668,10.752,16.819,12.211c1.724,0.35,3.447,0.521,5.171,0.521    c5.641,0,11.179-1.852,15.718-5.35c10.001-7.714,12.877-21.768,6.707-32.691c-4.872-8.619-4.463-11.187-4.471-11.187    c0.094-0.213,0.555-0.802,0.887-1.229l0.102-0.128c3.883-3.618,33.118-30.532,47.59-43.213    c53.82-47.164,109.312-95.838,92.962-153.643h62.566v17.067c0,2.961,1.536,5.7,4.053,7.262c1.365,0.845,2.927,1.271,4.48,1.271    c1.314,0,2.611-0.299,3.823-0.896l51.2-25.6c2.893-1.451,4.71-4.403,4.71-7.637C511.999,252.771,510.181,249.818,507.289,248.368z     M254.463,379.679c-11.383,9.975-32.043,29.218-44.186,40.619l-61.218-155.759h176.162l2.517,4.326    C343.986,296.829,317.883,324.101,254.463,379.679z M327.739,243.145l-2.517,4.326H149.059l61.21-155.742    c11.913,11.162,32.742,30.566,44.194,40.602C317.883,187.909,343.986,215.182,327.739,243.145z" fill="#D80027"/>
	</g>
</g>
<g>
</g>
<g>
</g>
<g>
</g>
<g>
</g>
<g>
</g>
<g>
</g>
<g>
</g>
<g>
</g>
<g>
</g>
<g>
</g>
<g>
</g>
<g>
</g>
<g>
</g>
<g>
</g>
<g>
</g>
</svg>
