<?xml version="1.0" encoding="iso-8859-1"?>
<!-- Generator: Adobe Illustrator 19.0.0, SVG Export Plug-In . SVG Version: 6.00 Build 0)  -->
<svg xmlns="http://www.w3.org/2000/svg" xmlns:xlink="http://www.w3.org/1999/xlink" version="1.1" id="Capa_1" x="0px" y="0px" viewBox="0 0 512.001 512.001" style="enable-background:new 0 0 512.001 512.001;" xml:space="preserve" width="512px" height="512px">
<g>
	<g>
		<path d="M497,271H351.405c-3.605,0-7.2-0.342-10.796-0.634C316.654,289.853,287.324,301,256,301    c-31.313,0-60.645-11.142-84.608-30.634c-3.596,0.291-7.192,0.634-10.798,0.634H15c-8.291,0-15,6.709-15,15    c0,15.408,1.571,30.456,4.536,45h502.929c2.964-14.544,4.536-29.592,4.536-45C512,277.709,505.291,271,497,271z" fill="#D80027"/>
	</g>
</g>
<g>
	<g>
		<path d="M14.124,362C45.108,449.248,128.255,512,226,512h60c97.745,0,180.892-62.752,211.874-150H14.124z" fill="#D80027"/>
	</g>
</g>
<g>
	<g>
		<path d="M256,159.232c-15.908,19.878-30,42.203-30,51.768c0,16.538,13.462,30,30,30c16.538,0,30-13.462,30-30    C286,201.714,271.937,179.214,256,159.232z" fill="#D80027"/>
	</g>
</g>
<g>
	<g>
		<path d="M313.173,63.607C290.468,32.026,268.1,5.802,267.162,4.746c-5.684-6.328-16.641-6.328-22.324,0    c-0.938,1.055-23.306,27.279-46.011,58.861C166.645,108.344,151,141.831,151,166c0,28.052,10.928,54.419,30.762,74.238    C201.581,260.072,227.948,271,256,271c-33.091,0-60-26.909-60-60c0-29.121,40.679-75.938,48.838-85.02    c5.684-6.328,16.641-6.328,22.324,0C275.321,135.063,316,181.879,316,211c0,33.091-26.909,60-60,60    c28.052,0,54.419-10.928,74.238-30.762C350.072,220.419,361,194.052,361,166C361,141.831,345.355,108.344,313.173,63.607z" fill="#D80027"/>
	</g>
</g>
<g>
</g>
<g>
</g>
<g>
</g>
<g>
</g>
<g>
</g>
<g>
</g>
<g>
</g>
<g>
</g>
<g>
</g>
<g>
</g>
<g>
</g>
<g>
</g>
<g>
</g>
<g>
</g>
<g>
</g>
</svg>
