<?xml version="1.0" encoding="iso-8859-1"?>
<!-- Generator: Adobe Illustrator 19.0.0, SVG Export Plug-In . SVG Version: 6.00 Build 0)  -->
<svg xmlns="http://www.w3.org/2000/svg" xmlns:xlink="http://www.w3.org/1999/xlink" version="1.1" id="Capa_1" x="0px" y="0px" viewBox="0 0 59.974 59.974" style="enable-background:new 0 0 59.974 59.974;" xml:space="preserve" width="512px" height="512px">
<g>
	<path d="M56.341,43.901l-2.625-4.376c-2.491-4.151-5.539-7.01-9.927-9.29l-5.764-2.658c-2.798-1.456-4.164-3.093-5.219-6.26   l-0.356-1.069c0.997-0.828,2.045-1.686,3.16-2.587l0.079-0.071c2.276-2.277-1.058-8.129-4.232-11.303   c-2.576-2.576-5.999-4.375-8.322-4.375c-1.194,0-1.901,0.457-2.284,0.84l-2.794,2.794l-1.791-1.97   c-0.805-0.885-2.313-0.921-3.158-0.075L9.125,7.484c-0.825,0.825-0.856,2.148-0.071,3.012l1.93,2.123l-3.646,3.646l0.054,2.336   c0.158,2.331,1.267,5.05,2.878,7.252l2.956-3.442l1.518,1.303l-3.171,3.692c0.03,0.03,0.056,0.065,0.086,0.095   c0.196,0.196,0.417,0.398,0.644,0.6c0.088,0.078,0.178,0.157,0.27,0.236c0.133,0.114,0.273,0.227,0.413,0.341   c0.269,0.217,0.547,0.434,0.839,0.648c0.032,0.024,0.064,0.048,0.096,0.072l5.356-5.356l1.414,1.414l-5.07,5.07   c1.252,0.752,2.523,1.348,3.56,1.556l1.396,0.283c0.991-1.7,2.463-3.486,4.438-5.472l0.237,0.714   c1.213,3.64,2.95,5.715,6.237,7.422l5.741,2.646c8.724,4.82,8.106,8.664,8.105,8.675l-0.038,0.152l0.011,0.156   c0.314,4.732,2.646,5.92,4.901,7.069c0.521,0.266,1.061,0.54,1.588,0.863c0.731,0.447,1.245,0.974,1.525,1.566   c0.555,1.174,1.688,1.904,2.955,1.904c1.32,0,2.48-0.811,2.956-2.066C60.173,53.52,61.038,48.669,56.341,43.901z" fill="#D80027"/>
	<path d="M18.785,34.042c-1.415-0.284-3.068-1.076-4.625-2.056l-0.005,0.005l-0.496-0.337c-0.669-0.445-1.307-0.913-1.897-1.391   c-0.069-0.055-0.132-0.11-0.199-0.165c-0.197-0.164-0.394-0.326-0.576-0.489c-0.266-0.235-0.517-0.468-0.743-0.695   c-0.261-0.261-0.514-0.547-0.765-0.839l-0.061-0.071c-0.064-0.076-0.13-0.147-0.193-0.225l-0.305-0.356l0.02-0.023   c-1.976-2.566-3.352-5.858-3.545-8.709l-0.012-0.499l-4.645,1.99c-0.271,0.116-0.479,0.33-0.585,0.601L0,21.231l0.167,0.382   c0.162,0.369,1.657,3.315,1.955,3.901L2.4,26.062h2.451l-0.435,3.479l0.213,0.313c0.747,1.095,1.427,1.944,2.079,2.596   c3.222,3.222,10.594,6.43,10.906,6.564l1.47,0.635l-0.074-1.599c-0.059-1.286,0.17-2.545,0.666-3.828L18.785,34.042z" fill="#D80027"/>
</g>
<g>
</g>
<g>
</g>
<g>
</g>
<g>
</g>
<g>
</g>
<g>
</g>
<g>
</g>
<g>
</g>
<g>
</g>
<g>
</g>
<g>
</g>
<g>
</g>
<g>
</g>
<g>
</g>
<g>
</g>
</svg>
