<?xml version="1.0" encoding="iso-8859-1"?>
<!-- Generator: Adobe Illustrator 19.1.0, SVG Export Plug-In . SVG Version: 6.00 Build 0)  -->
<svg xmlns="http://www.w3.org/2000/svg" xmlns:xlink="http://www.w3.org/1999/xlink" version="1.1" id="Capa_1" x="0px" y="0px" viewBox="0 0 451.751 451.751" style="enable-background:new 0 0 451.751 451.751;" xml:space="preserve" width="512px" height="512px">
<g id="XMLID_793_">
	<path id="XMLID_847_" d="M432.44,94.823l4.324-4.324c19.983-19.983,19.983-52.383,0-72.367c-19.983-19.983-52.383-19.983-72.366,0   l-4.324,4.324L432.44,94.823z" fill="#D80027"/>
	<path id="XMLID_850_" d="M363.775,163.488l-72.367-72.367l-25.758,25.758l0,0c-5.856-5.858-15.354-5.858-21.213,0   c-5.858,5.857-5.858,15.355,0,21.213l9.382,9.382L83.03,297.622c-1.153,26.658-23.334,73.845-59.014,121.436   C16.115,429.596,8.048,439.489,0,448.607c57.482-11.153,109.97-40.181,149.972-82.941L305.624,199.28l11.18,11.181   c2.929,2.93,6.768,4.393,10.606,4.393c3.838,0,7.678-1.465,10.606-4.393c5.858-5.857,5.858-15.355,0-21.213L363.775,163.488z" fill="#D80027"/>
	<path d="M411.23,116.034l-26.239,26.239l-72.366-72.366l26.239-26.239L411.23,116.034z" fill="#D80027"/>
</g>
<g>
</g>
<g>
</g>
<g>
</g>
<g>
</g>
<g>
</g>
<g>
</g>
<g>
</g>
<g>
</g>
<g>
</g>
<g>
</g>
<g>
</g>
<g>
</g>
<g>
</g>
<g>
</g>
<g>
</g>
</svg>
